<svg width="188" height="188" viewBox="0 0 188 188" fill="none" xmlns="http://www.w3.org/2000/svg">
<path d="M21.0833 187.75C15.3542 187.75 10.4497 185.71 6.36979 181.63C2.28993 177.55 0.25 172.646 0.25 166.917V21.0833C0.25 15.3542 2.28993 10.4497 6.36979 6.36979C10.4497 2.28993 15.3542 0.25 21.0833 0.25H104.417V21.0833H21.0833V166.917H166.917V83.5833H187.75V166.917C187.75 172.646 185.71 177.55 181.63 181.63C177.55 185.71 172.646 187.75 166.917 187.75H21.0833ZM31.5 146.083H156.5L117.437 94L86.1875 135.667L62.75 104.417L31.5 146.083ZM146.083 62.75V41.9167H125.25V21.0833H146.083V0.25H166.917V21.0833H187.75V41.9167H166.917V62.75H146.083Z" fill="black"/>
</svg>
