<svg width="40" height="40" viewBox="0 0 40 40" fill="none" xmlns="http://www.w3.org/2000/svg">
<path d="M35.902 21.8637C35.0587 24.9712 33.0349 27.5062 30.3259 29.2102C26.6762 31.5841 21.6911 32.39 16.7146 31.0394L8.23608 33.084C6.80058 33.4515 5.47935 32.0555 6.01045 30.7698L8.1135 25.8173C4.98364 22.3604 3.60795 17.8094 4.79859 13.4223C6.04594 8.82631 9.80238 5.5001 14.5261 4.20269C17.4537 3.37108 20.7131 3.33051 23.9931 4.22069C32.589 6.55359 37.9148 14.4474 35.902 21.8637Z" stroke="black" stroke-width="3" stroke-linecap="round" stroke-linejoin="round"/>
<path d="M26.7024 21.9784C26.7185 22.2143 26.6826 22.4603 26.5872 22.7037C26.4919 22.9471 26.3629 23.1797 26.1872 23.4022C25.8903 23.7778 25.5539 24.0574 25.1654 24.2484C24.7835 24.4389 24.3634 24.5531 23.9048 24.5843C23.2366 24.6298 22.5118 24.5211 21.7366 24.2514C20.9613 23.9816 20.1785 23.6005 19.3946 23.1076C18.6038 22.6085 17.8482 22.0478 17.121 21.4194C16.3998 20.784 15.742 20.1114 15.1474 19.4015C14.5593 18.6912 14.0761 17.9738 13.7113 17.2549C13.346 16.5294 13.1402 15.8261 13.0938 15.1447C13.0635 14.6992 13.1131 14.268 13.2436 13.8643C13.3737 13.4539 13.5976 13.0701 13.9226 12.7189C14.3138 12.2777 14.7585 12.0434 15.2433 12.0104C15.4268 11.9979 15.6129 12.0247 15.782 12.0922C15.9577 12.1592 16.1164 12.2669 16.2459 12.4292L17.9116 14.468C18.0407 14.6238 18.1361 14.7687 18.2049 14.9088C18.2732 15.0424 18.3153 15.1777 18.3238 15.3022C18.3345 15.4594 18.2993 15.6198 18.2179 15.7767C18.143 15.9332 18.0292 16.0989 17.8826 16.2668L17.42 16.8182C17.3528 16.8952 17.3258 16.9826 17.333 17.0874C17.3365 17.1398 17.3462 17.1852 17.3629 17.2368C17.3861 17.2878 17.4084 17.3258 17.4242 17.3642C17.5568 17.5724 17.7791 17.8403 18.0905 18.1613C18.4085 18.4819 18.7466 18.8078 19.1109 19.1318C19.4883 19.455 19.8508 19.7528 20.2181 20.024C20.5784 20.289 20.8735 20.4664 21.1043 20.5692C21.1379 20.5801 21.1786 20.597 21.2257 20.6136C21.2795 20.6297 21.3324 20.6326 21.3913 20.6286C21.5027 20.621 21.5852 20.5759 21.6523 20.499L22.1168 19.9737C22.2694 19.7988 22.4182 19.6636 22.5635 19.5748C22.708 19.4728 22.8555 19.4167 23.0193 19.4055C23.1438 19.3971 23.2766 19.4144 23.4247 19.4635C23.5729 19.5127 23.7294 19.5876 23.9007 19.6878L26.174 21.0798C26.3523 21.1861 26.4796 21.3157 26.5628 21.4746C26.6395 21.6339 26.6899 21.795 26.7024 21.9784Z" stroke="black" stroke-width="2" stroke-miterlimit="10"/>
</svg>
