<svg width="45" height="45" viewBox="0 0 45 45" fill="none" xmlns="http://www.w3.org/2000/svg">
<path d="M3.75 3.75H7.01251C9.03751 3.75 10.6313 5.49375 10.4625 7.5L8.90625 26.175C8.64375 29.2312 11.0625 31.8562 14.1375 31.8562H34.1063C36.8063 31.8562 39.1687 29.6438 39.375 26.9625L40.3875 12.9C40.6125 9.78751 38.25 7.25624 35.1187 7.25624H10.9125" stroke="black" stroke-width="3" stroke-miterlimit="10" stroke-linecap="round" stroke-linejoin="round"/>
<path d="M30.4688 41.25C31.7632 41.25 32.8125 40.2007 32.8125 38.9062C32.8125 37.6118 31.7632 36.5625 30.4688 36.5625C29.1743 36.5625 28.125 37.6118 28.125 38.9062C28.125 40.2007 29.1743 41.25 30.4688 41.25Z" stroke="black" stroke-width="3" stroke-miterlimit="10" stroke-linecap="round" stroke-linejoin="round"/>
<path d="M15.4688 41.25C16.7632 41.25 17.8125 40.2007 17.8125 38.9062C17.8125 37.6118 16.7632 36.5625 15.4688 36.5625C14.1743 36.5625 13.125 37.6118 13.125 38.9062C13.125 40.2007 14.1743 41.25 15.4688 41.25Z" stroke="black" stroke-width="3" stroke-miterlimit="10" stroke-linecap="round" stroke-linejoin="round"/>
<path d="M16.875 15H39.375" stroke="black" stroke-width="3" stroke-miterlimit="10" stroke-linecap="round" stroke-linejoin="round"/>
</svg>
