<svg width="45" height="45" viewBox="0 0 45 45" fill="none" xmlns="http://www.w3.org/2000/svg">
<path d="M34.6312 31.5563L35.3625 37.4812C35.55 39.0375 33.8812 40.1249 32.55 39.3187L24.6937 34.65C23.8312 34.65 22.9875 34.5938 22.1625 34.4813C23.55 32.85 24.375 30.7875 24.375 28.5562C24.375 23.2312 19.7625 18.9188 14.0625 18.9188C11.8875 18.9188 9.88122 19.5375 8.21247 20.625C8.15622 20.1562 8.13745 19.6875 8.13745 19.2C8.13745 10.6687 15.5437 3.75 24.6937 3.75C33.8437 3.75 41.25 10.6687 41.25 19.2C41.25 24.2625 38.6437 28.7438 34.6312 31.5563Z" stroke="black" stroke-width="3" stroke-linecap="round" stroke-linejoin="round"/>
<path d="M24.375 28.5564C24.375 30.7876 23.55 32.8502 22.1625 34.4814C20.3063 36.7314 17.3625 38.1751 14.0625 38.1751L9.16875 41.0813C8.34375 41.5876 7.29374 40.8939 7.40624 39.9376L7.87499 36.2439C5.36249 34.5002 3.75 31.7064 3.75 28.5564C3.75 25.2564 5.51251 22.3501 8.21251 20.6251C9.88126 19.5376 11.8875 18.9189 14.0625 18.9189C19.7625 18.9189 24.375 23.2314 24.375 28.5564Z" stroke="black" stroke-width="3" stroke-linecap="round" stroke-linejoin="round"/>
</svg>
