<svg width="36" height="37" viewBox="0 0 36 37" fill="none" xmlns="http://www.w3.org/2000/svg">
<path d="M13.5 33.4644H22.5C30 33.4644 33 30.4644 33 22.9644V13.9644C33 6.46436 30 3.46436 22.5 3.46436H13.5C6 3.46436 3 6.46436 3 13.9644V22.9644C3 30.4644 6 33.4644 13.5 33.4644Z" stroke="black" stroke-width="3" stroke-linecap="round" stroke-linejoin="round"/>
<path d="M18 23.7144C20.8995 23.7144 23.25 21.3639 23.25 18.4644C23.25 15.5649 20.8995 13.2144 18 13.2144C15.1005 13.2144 12.75 15.5649 12.75 18.4644C12.75 21.3639 15.1005 23.7144 18 23.7144Z" stroke="black" stroke-width="3" stroke-linecap="round" stroke-linejoin="round"/>
<path d="M26.4542 10.9644H26.4715" stroke="black" stroke-width="2" stroke-linecap="round" stroke-linejoin="round"/>
</svg>
