<svg width="45" height="45" viewBox="0 0 45 45" fill="none" xmlns="http://www.w3.org/2000/svg">
<path d="M22.5374 5.45605C16.3311 5.45605 11.2874 10.4998 11.2874 16.7061V22.1248C11.2874 23.2686 10.7999 25.0123 10.2186 25.9873L8.06236 29.5686C6.73111 31.7811 7.64986 34.2373 10.0874 35.0623C18.1686 37.7623 26.8874 37.7623 34.9686 35.0623C37.2374 34.3123 38.2311 31.6311 36.9936 29.5686L34.8374 25.9873C34.2749 25.0123 33.7874 23.2686 33.7874 22.1248V16.7061C33.7874 10.5186 28.7249 5.45605 22.5374 5.45605Z" stroke="black" stroke-width="3" stroke-miterlimit="10" stroke-linecap="round"/>
<path d="M26.0061 6.0002C25.4249 5.83145 24.8249 5.7002 24.2061 5.6252C22.4061 5.4002 20.6811 5.53145 19.0686 6.0002C19.6124 4.6127 20.9624 3.6377 22.5374 3.6377C24.1124 3.6377 25.4624 4.6127 26.0061 6.0002Z" stroke="black" stroke-width="3" stroke-miterlimit="10" stroke-linecap="round" stroke-linejoin="round"/>
<path d="M28.1624 35.7373C28.1624 38.8311 25.6311 41.3623 22.5374 41.3623C20.9999 41.3623 19.5749 40.7248 18.5624 39.7123C17.5499 38.6998 16.9124 37.2748 16.9124 35.7373" stroke="black" stroke-width="3" stroke-miterlimit="10"/>
</svg>
