<svg width="80" height="80" viewBox="0 0 80 80" fill="none" xmlns="http://www.w3.org/2000/svg">
<path d="M40.4002 42.5999C40.1669 42.5666 39.8669 42.5666 39.6002 42.5999C33.7336 42.3999 29.0669 37.5999 29.0669 31.6999C29.0669 25.6666 33.9336 20.7666 40.0002 20.7666C46.0336 20.7666 50.9336 25.6666 50.9336 31.6999C50.9002 37.5999 46.2669 42.3999 40.4002 42.5999Z" stroke="black" stroke-width="3" stroke-linecap="round" stroke-linejoin="round"/>
<path d="M62.4665 64.6002C56.5332 70.0335 48.6665 73.3335 39.9999 73.3335C31.3332 73.3335 23.4665 70.0335 17.5332 64.6002C17.8665 61.4669 19.8665 58.4002 23.4332 56.0002C32.5665 49.9335 47.4999 49.9335 56.5665 56.0002C60.1332 58.4002 62.1332 61.4669 62.4665 64.6002Z" stroke="black" stroke-width="3" stroke-linecap="round" stroke-linejoin="round"/>
<path d="M39.9998 73.3332C58.4093 73.3332 73.3332 58.4093 73.3332 39.9998C73.3332 21.5903 58.4093 6.6665 39.9998 6.6665C21.5903 6.6665 6.6665 21.5903 6.6665 39.9998C6.6665 58.4093 21.5903 73.3332 39.9998 73.3332Z" stroke="black" stroke-width="3" stroke-linecap="round" stroke-linejoin="round"/>
</svg>
